<?xml version="1.0" encoding="utf-8"?>
<!-- Generator: Adobe Illustrator 19.0.0, SVG Export Plug-In . SVG Version: 6.00 Build 0)  -->
<svg version="1.1" id="Layer_1" xmlns="http://www.w3.org/2000/svg" xmlns:xlink="http://www.w3.org/1999/xlink" x="0px" y="0px"
	 viewBox="-489 490 20.2 21" style="enable-background:new -489 490 20.2 21;" xml:space="preserve">
<g>
	<path d="M-471.1,490.1h-15.6c-1.2,0-2.2,1-2.2,2.2v10.5c0,1.2,1,2.2,2.2,2.2h4.4l7.2,5.8V505h4c1.2,0,2.2-1,2.2-2.2v-10.5
		C-469,491.1-469.9,490.1-471.1,490.1z M-470.3,502.8c0,0.5-0.4,0.9-0.9,0.9h-5.3v4.4l-5.4-4.4h-4.8c-0.5,0-0.9-0.4-0.9-0.9v-10.5
		c0-0.5,0.4-0.9,0.9-0.9h15.6c0.5,0,0.9,0.4,0.9,0.9L-470.3,502.8L-470.3,502.8z"/>
	<path d="M-475,511l-7.4-5.9h-4.3c-1.3,0-2.3-1.1-2.3-2.3v-10.5c0-1.3,1-2.3,2.3-2.3h15.6c1.3,0,2.3,1,2.3,2.3v10.5
		c0,1.3-1,2.3-2.3,2.3h-3.9V511z M-486.7,490.2c-1.1,0-2.1,0.9-2.1,2.1v10.5c0,1.1,0.9,2.1,2.1,2.1h4.4l7,5.6v-5.7h4.1
		c1.1,0,2.1-0.9,2.1-2.1v-10.4c0-1.1-0.9-2.1-2.1-2.1C-471.2,490.2-486.7,490.2-486.7,490.2z M-476.3,508.3l-5.6-4.5h-4.8
		c-0.5,0-1-0.4-1-1v-10.5c0-0.5,0.4-1,1-1h15.6c0.5,0,1,0.4,1,1v10.5c0,0.5-0.4,1-1,1h-5.1C-476.2,503.8-476.3,508.3-476.3,508.3z
		 M-486.7,491.6c-0.4,0-0.7,0.3-0.7,0.7v10.5c0,0.4,0.3,0.7,0.7,0.7h4.9l5.2,4.2v-4.2h5.4c0.4,0,0.7-0.3,0.7-0.7v-10.5
		c0-0.4-0.3-0.7-0.7-0.7C-471.2,491.6-486.7,491.6-486.7,491.6z"/>
</g>
</svg>
