<?xml version="1.0" encoding="utf-8"?>
<!-- Generator: Adobe Illustrator 19.0.0, SVG Export Plug-In . SVG Version: 6.00 Build 0)  -->
<svg version="1.1" id="Layer_1" xmlns="http://www.w3.org/2000/svg" xmlns:xlink="http://www.w3.org/1999/xlink" x="0px" y="0px"
	 viewBox="-491 490.6 16.5 20.4" style="enable-background:new -491 490.6 16.5 20.4;" xml:space="preserve">
<g>
	<path d="M-482.8,495.2c-1.9,0-3.4,1.5-3.4,3.4c0,1.8,1.5,3.3,3.3,3.3c1.8,0,3.3-1.5,3.3-3.3C-479.5,496.7-481,495.2-482.8,495.2z
		 M-482.8,500.6c-1.1,0-2-0.9-2-2s0.9-2,2-2s2,0.9,2,2S-481.7,500.6-482.8,500.6z"/>
	<path d="M-482.8,502c-1.9,0-3.5-1.6-3.5-3.5c0-1.9,1.6-3.5,3.5-3.5s3.5,1.6,3.5,3.5C-479.3,500.4-480.9,502-482.8,502z
		 M-482.8,495.4c-1.8,0-3.2,1.4-3.2,3.2c0,1.8,1.4,3.2,3.2,3.2c1.8,0,3.2-1.4,3.2-3.2C-479.6,496.8-481.1,495.4-482.8,495.4z
		 M-482.8,500.7c-1.2,0-2.2-0.9-2.2-2.1c0-1.2,1-2.1,2.1-2.1c1.1,0,2.1,1,2.1,2.1S-481.6,500.7-482.8,500.7z M-482.8,496.7
		c-1,0-1.9,0.9-1.9,1.9s0.9,1.9,1.9,1.9s1.9-0.9,1.9-1.9S-481.8,496.7-482.8,496.7z"/>
	<path d="M-474.8,498.9c0-4.4-3.6-8-8-8s-8,3.6-8,8c-0.1,6.8,7.3,11.6,7.6,11.8l0.4,0.2l0.3-0.2
		C-482.1,510.4-474.8,505.4-474.8,498.9z M-482.8,509.3l-0.2-0.1c-1.5-1.1-6.6-5.2-6.6-10.3c0-3.7,3-6.7,6.7-6.7
		c3.7,0,6.7,3,6.7,6.7c0,4.9-5,9.1-6.6,10.3V509.3z"/>
	<path d="M-482.8,511l-0.4-0.3c-0.4-0.1-7.8-5-7.8-11.8c0-4.5,3.7-8.2,8.2-8.2s8.2,3.7,8.2,8.2c0,6.6-7.4,11.7-7.7,11.9L-482.8,511z
		 M-482.8,490.9c-4.4,0-7.9,3.6-7.9,7.9c0,6.7,7.3,11.5,7.6,11.7l0.3,0.2l0.3-0.2c0.3-0.2,7.6-5.2,7.6-11.7
		C-474.9,494.5-478.5,490.9-482.8,490.9z M-482.8,509.5l-0.2-0.2c-1.6-1.1-6.6-5.2-6.6-10.4c0-3.8,3.1-6.9,6.9-6.9s6.7,3.1,6.7,6.9
		c0,5-5.1,9.2-6.6,10.4C-482.6,509.3-482.8,509.5-482.8,509.5z M-482.8,492.3c-3.6,0-6.6,3-6.6,6.6c0,5.1,5,9.1,6.5,10.2l0.1,0.1
		l0.1-0.1c1.5-1.2,6.5-5.3,6.5-10.2C-476.2,495.2-479.2,492.3-482.8,492.3z"/>
</g>
</svg>
