<?xml version="1.0" encoding="utf-8"?>
<!-- Generator: Adobe Illustrator 19.0.0, SVG Export Plug-In . SVG Version: 6.00 Build 0)  -->
<svg version="1.1" id="Layer_1" xmlns="http://www.w3.org/2000/svg" xmlns:xlink="http://www.w3.org/1999/xlink" x="0px" y="0px"
	 viewBox="-490 489.1 18 21.9" style="enable-background:new -490 489.1 18 21.9;" xml:space="preserve">
<path d="M-474.1,502.1c1,0,1.9,0.8,1.9,1.9s-0.9,1.9-1.9,1.9h-13.8c-1.1,0-1.9-0.8-1.9-1.9c0-1,0.9-1.9,1.9-1.9
	c0.1,0,0.2-0.1,0.2-0.2v-4.1c0-3.7,3-6.6,6.8-6.6s6.8,3,6.8,6.6v4.1C-474.2,502-474.2,502.1-474.1,502.1L-474.1,502.1z
	 M-474.1,503.1c-0.7,0-1.2-0.5-1.2-1.2v-4.1c0-3.1-2.6-5.6-5.7-5.6s-5.7,2.5-5.7,5.6v4.1c0,0.7-0.5,1.2-1.2,1.2
	c-0.5,0-0.9,0.4-0.9,0.8c0,0.5,0.4,0.8,0.9,0.8h13.8c0.5,0,0.9-0.4,0.9-0.8C-473.2,503.5-473.6,503.1-474.1,503.1z M-484.4,507.1
	h1.2c0,1.2,1,2.2,2.2,2.2s2.2-1,2.2-2.2h1.2c0,1.9-1.5,3.4-3.4,3.4S-484.4,509-484.4,507.1z"/>
</svg>
